<svg xmlns="http://www.w3.org/2000/svg" xmlns:xlink="http://www.w3.org/1999/xlink" width="500" zoomAndPan="magnify" viewBox="0 0 375 374.999991" height="500" preserveAspectRatio="xMidYMid meet" version="1.0"><defs><clipPath id="131c14eb01"><path d="M 10 64 L 365.964844 64 L 365.964844 334 L 10 334 Z M 10 64 " clip-rule="nonzero"/></clipPath><clipPath id="9fc3eab416"><path d="M 10 64 L 365.964844 64 L 365.964844 334 L 10 334 Z M 10 64 " clip-rule="nonzero"/></clipPath></defs><path fill="#ed2324" d="M 114.886719 319.507812 C 115.101562 319.9375 115.316406 320.363281 115.527344 320.789062 C 74.527344 306.980469 41.710938 275.445312 26.050781 235.371094 C 25.980469 235.226562 25.980469 235.15625 25.90625 235.015625 C 25.765625 234.585938 25.550781 234.160156 25.410156 233.734375 C 25.054688 232.808594 24.769531 231.953125 24.414062 231.027344 C 24.269531 230.527344 24.058594 230.101562 23.914062 229.605469 C 23.628906 228.820312 23.417969 228.039062 23.132812 227.324219 C 22.777344 226.1875 22.417969 224.976562 22.0625 223.839844 C 21.992188 223.554688 21.851562 223.199219 21.777344 222.914062 C 21.707031 222.769531 21.707031 222.558594 21.636719 222.414062 C 21.421875 221.632812 21.210938 220.777344 20.996094 219.992188 C 20.710938 218.925781 20.425781 217.859375 20.140625 216.789062 C 20.070312 216.578125 20.070312 216.433594 20 216.222656 C 19.855469 215.652344 19.714844 215.082031 19.644531 214.585938 C 19.5 213.800781 19.289062 213.089844 19.144531 212.304688 C 19.074219 212.019531 19.003906 211.808594 19.003906 211.523438 C 18.933594 211.238281 18.859375 210.882812 18.789062 210.597656 C 43.277344 220.207031 67.265625 245.761719 85.988281 271.816406 C 98.445312 288.828125 108.550781 306.269531 114.886719 319.507812 Z M 275.621094 89.941406 C 248.785156 57.054688 208.066406 36.054688 162.296875 36.054688 C 81.574219 36.054688 16.15625 101.472656 16.15625 182.195312 C 16.15625 186.394531 16.367188 190.523438 16.652344 194.582031 C 21.636719 189.386719 27.1875 184.1875 33.878906 180.203125 C 50.109375 170.519531 59.578125 174.578125 70.253906 179.988281 C 88.976562 189.597656 127.273438 236.652344 130.40625 255.941406 C 146.636719 198.210938 208.28125 127.171875 275.621094 89.941406 Z M 349.511719 73.140625 C 338.617188 79.121094 326.375 86.167969 322.390625 89.15625 C 318.472656 92.078125 314.558594 95.066406 310.785156 98.054688 C 310.714844 98.128906 310.644531 98.199219 310.574219 98.269531 C 309.648438 98.980469 308.722656 99.765625 307.796875 100.476562 C 306.371094 101.613281 305.019531 102.753906 303.597656 103.894531 C 303.453125 104.035156 303.3125 104.179688 303.167969 104.25 C 302.457031 104.890625 301.746094 105.460938 300.960938 106.101562 C 299.894531 107.023438 298.828125 107.949219 297.757812 108.875 C 296.976562 109.515625 296.265625 110.15625 295.480469 110.796875 C 294.269531 111.867188 293.132812 112.863281 291.921875 113.929688 C 291.140625 114.640625 290.355469 115.355469 289.574219 116.066406 C 288.71875 116.847656 287.9375 117.558594 287.082031 118.34375 C 285.445312 119.839844 283.878906 121.332031 282.242188 122.828125 C 282.167969 122.898438 282.027344 123.042969 281.957031 123.113281 C 222.445312 179.988281 186.5 247.257812 167.636719 310.328125 C 165.144531 318.65625 161.015625 324.492188 156.175781 328.265625 C 158.238281 328.335938 160.230469 328.40625 162.296875 328.40625 C 168.558594 328.40625 174.683594 327.980469 180.734375 327.269531 C 252.769531 318.226562 308.507812 256.726562 308.507812 182.195312 C 308.507812 166.390625 305.945312 151.230469 301.390625 136.992188 C 319.398438 109.800781 341.464844 82.75 349.511719 73.140625 Z M 349.511719 73.140625 " fill-opacity="1" fill-rule="nonzero"/><path fill="#000000" d="M 328.511719 85.242188 C 324.382812 88.089844 321.035156 90.582031 319.257812 92.078125 C 239.957031 160.699219 198.457031 246.546875 181.445312 324.136719 C 181.230469 325.203125 180.945312 326.199219 180.660156 327.195312 C 174.609375 327.980469 168.488281 328.335938 162.226562 328.335938 C 160.160156 328.335938 158.097656 328.265625 156.101562 328.195312 C 161.015625 324.421875 165.074219 318.582031 167.5625 310.253906 C 186.355469 247.257812 222.375 179.917969 281.886719 123.113281 C 281.957031 123.042969 282.097656 122.898438 282.167969 122.828125 C 283.734375 121.332031 285.375 119.839844 287.011719 118.34375 C 287.863281 117.558594 288.648438 116.847656 289.5 116.066406 C 290.285156 115.355469 291.066406 114.640625 291.851562 113.929688 C 292.988281 112.863281 294.199219 111.867188 295.410156 110.796875 C 296.121094 110.15625 296.90625 109.515625 297.6875 108.875 C 298.753906 107.949219 299.824219 107.023438 300.890625 106.101562 C 301.601562 105.460938 302.316406 104.890625 303.097656 104.25 C 303.242188 104.105469 303.382812 103.964844 303.523438 103.894531 C 304.878906 102.753906 306.300781 101.613281 307.726562 100.476562 C 308.648438 99.765625 309.574219 98.980469 310.5 98.269531 C 311.78125 97.273438 312.992188 96.277344 314.34375 95.28125 C 316.90625 93.285156 319.46875 91.292969 322.105469 89.371094 C 323.171875 88.589844 324.878906 87.449219 326.945312 86.167969 C 327.515625 85.882812 328.011719 85.597656 328.511719 85.242188 Z M 86.058594 271.601562 C 67.335938 245.550781 43.277344 219.992188 18.859375 210.382812 C 18.933594 210.667969 19.003906 211.023438 19.074219 211.308594 C 19.144531 211.59375 19.144531 211.808594 19.214844 212.09375 C 19.359375 212.875 19.574219 213.585938 19.714844 214.371094 C 19.855469 214.941406 20 215.507812 20.070312 216.007812 C 20.140625 216.222656 20.140625 216.363281 20.214844 216.578125 C 20.640625 218.429688 21.136719 220.207031 21.636719 222.058594 C 21.707031 222.273438 21.777344 222.484375 21.851562 222.699219 C 23.058594 226.96875 24.484375 231.167969 26.050781 235.226562 C 52.957031 243.199219 80.71875 269.609375 102.144531 296.019531 C 97.375 288.046875 91.894531 279.644531 85.84375 271.316406 C 85.988281 271.460938 85.988281 271.53125 86.058594 271.601562 Z M 86.058594 271.601562 " fill-opacity="1" fill-rule="nonzero"/><g clip-path="url(#131c14eb01)"><path fill="#ffffff" d="M 167.636719 310.328125 C 186.425781 247.328125 222.445312 179.988281 281.957031 123.183594 C 282.027344 123.113281 282.167969 122.96875 282.242188 122.898438 C 283.808594 121.402344 285.445312 119.910156 287.082031 118.414062 C 287.9375 117.632812 288.71875 116.917969 289.574219 116.136719 C 290.355469 115.425781 291.140625 114.714844 291.921875 114 C 293.0625 112.933594 294.269531 111.9375 295.480469 110.867188 C 296.191406 110.226562 296.976562 109.585938 297.757812 108.945312 C 298.828125 108.023438 299.894531 107.097656 300.960938 106.171875 C 301.675781 105.53125 302.386719 104.960938 303.167969 104.320312 C 303.3125 104.179688 303.453125 104.035156 303.597656 103.964844 C 304.949219 102.824219 306.371094 101.6875 307.796875 100.546875 C 312.496094 96.703125 317.40625 92.929688 322.390625 89.230469 C 326.375 86.238281 338.617188 79.191406 349.511719 73.210938 C 356.273438 69.511719 362.464844 66.238281 366.023438 64.457031 C 337.125 63.316406 305.804688 73.285156 275.621094 89.941406 C 208.28125 127.171875 146.636719 198.28125 130.40625 256.011719 C 127.273438 236.652344 88.976562 189.597656 70.253906 180.058594 C 59.648438 174.648438 50.109375 170.59375 33.878906 180.273438 C 27.1875 184.257812 21.636719 189.386719 16.652344 194.582031 C 14.804688 196.503906 13.09375 198.425781 11.386719 200.277344 C 8.964844 202.980469 10.035156 207.464844 13.523438 208.535156 C 15.300781 209.03125 17.082031 209.671875 18.859375 210.382812 C 43.347656 219.992188 67.335938 245.550781 86.058594 271.601562 C 98.445312 288.828125 108.480469 306.269531 114.886719 319.507812 C 115.101562 319.9375 115.316406 320.363281 115.527344 320.789062 C 122.648438 333.390625 142.363281 338.941406 156.03125 328.335938 C 156.03125 328.335938 156.101562 328.265625 156.101562 328.265625 C 161.085938 324.492188 165.144531 318.65625 167.636719 310.328125 Z M 167.636719 310.328125 " fill-opacity="1" fill-rule="nonzero"/></g><path fill="#ed2324" d="M 114.886719 319.507812 C 115.101562 319.9375 115.316406 320.363281 115.527344 320.789062 C 74.527344 306.980469 41.710938 275.445312 26.050781 235.371094 C 25.980469 235.226562 25.980469 235.15625 25.90625 235.015625 C 25.765625 234.585938 25.550781 234.160156 25.410156 233.734375 C 25.054688 232.808594 24.769531 231.953125 24.414062 231.027344 C 24.269531 230.527344 24.058594 230.101562 23.914062 229.605469 C 23.628906 228.820312 23.417969 228.039062 23.132812 227.324219 C 22.777344 226.1875 22.417969 224.976562 22.0625 223.839844 C 21.992188 223.554688 21.851562 223.199219 21.777344 222.914062 C 21.707031 222.769531 21.707031 222.558594 21.636719 222.414062 C 21.421875 221.632812 21.210938 220.777344 20.996094 219.992188 C 20.710938 218.925781 20.425781 217.859375 20.140625 216.789062 C 20.070312 216.578125 20.070312 216.433594 20 216.222656 C 19.855469 215.652344 19.714844 215.082031 19.644531 214.585938 C 19.5 213.800781 19.289062 213.089844 19.144531 212.304688 C 19.074219 212.019531 19.003906 211.808594 19.003906 211.523438 C 18.933594 211.238281 18.859375 210.882812 18.789062 210.597656 C 43.277344 220.207031 67.265625 245.761719 85.988281 271.816406 C 98.445312 288.828125 108.550781 306.269531 114.886719 319.507812 Z M 275.621094 89.941406 C 248.785156 57.054688 208.066406 36.054688 162.296875 36.054688 C 81.574219 36.054688 16.15625 101.472656 16.15625 182.195312 C 16.15625 186.394531 16.367188 190.523438 16.652344 194.582031 C 21.636719 189.386719 27.1875 184.1875 33.878906 180.203125 C 50.109375 170.519531 59.578125 174.578125 70.253906 179.988281 C 88.976562 189.597656 127.273438 236.652344 130.40625 255.941406 C 146.636719 198.210938 208.28125 127.171875 275.621094 89.941406 Z M 349.511719 73.140625 C 338.617188 79.121094 326.375 86.167969 322.390625 89.15625 C 318.472656 92.078125 314.558594 95.066406 310.785156 98.054688 C 310.714844 98.128906 310.644531 98.199219 310.574219 98.269531 C 309.648438 98.980469 308.722656 99.765625 307.796875 100.476562 C 306.371094 101.613281 305.019531 102.753906 303.597656 103.894531 C 303.453125 104.035156 303.3125 104.179688 303.167969 104.25 C 302.457031 104.890625 301.746094 105.460938 300.960938 106.101562 C 299.894531 107.023438 298.828125 107.949219 297.757812 108.875 C 296.976562 109.515625 296.265625 110.15625 295.480469 110.796875 C 294.269531 111.867188 293.132812 112.863281 291.921875 113.929688 C 291.140625 114.640625 290.355469 115.355469 289.574219 116.066406 C 288.71875 116.847656 287.9375 117.558594 287.082031 118.34375 C 285.445312 119.839844 283.878906 121.332031 282.242188 122.828125 C 282.167969 122.898438 282.027344 123.042969 281.957031 123.113281 C 222.445312 179.988281 186.5 247.257812 167.636719 310.328125 C 165.144531 318.65625 161.015625 324.492188 156.175781 328.265625 C 158.238281 328.335938 160.230469 328.40625 162.296875 328.40625 C 168.558594 328.40625 174.683594 327.980469 180.734375 327.269531 C 252.769531 318.226562 308.507812 256.726562 308.507812 182.195312 C 308.507812 166.390625 305.945312 151.230469 301.390625 136.992188 C 319.398438 109.800781 341.464844 82.75 349.511719 73.140625 Z M 349.511719 73.140625 " fill-opacity="1" fill-rule="nonzero"/><path fill="#000000" d="M 328.511719 85.242188 C 324.382812 88.089844 321.035156 90.582031 319.257812 92.078125 C 239.957031 160.699219 198.457031 246.546875 181.445312 324.136719 C 181.230469 325.203125 180.945312 326.199219 180.660156 327.195312 C 174.609375 327.980469 168.488281 328.335938 162.226562 328.335938 C 160.160156 328.335938 158.097656 328.265625 156.101562 328.195312 C 161.015625 324.421875 165.074219 318.582031 167.5625 310.253906 C 186.355469 247.257812 222.375 179.917969 281.886719 123.113281 C 281.957031 123.042969 282.097656 122.898438 282.167969 122.828125 C 283.734375 121.332031 285.375 119.839844 287.011719 118.34375 C 287.863281 117.558594 288.648438 116.847656 289.5 116.066406 C 290.285156 115.355469 291.066406 114.640625 291.851562 113.929688 C 292.988281 112.863281 294.199219 111.867188 295.410156 110.796875 C 296.121094 110.15625 296.90625 109.515625 297.6875 108.875 C 298.753906 107.949219 299.824219 107.023438 300.890625 106.101562 C 301.601562 105.460938 302.316406 104.890625 303.097656 104.25 C 303.242188 104.105469 303.382812 103.964844 303.523438 103.894531 C 304.878906 102.753906 306.300781 101.613281 307.726562 100.476562 C 308.648438 99.765625 309.574219 98.980469 310.5 98.269531 C 311.78125 97.273438 312.992188 96.277344 314.34375 95.28125 C 316.90625 93.285156 319.46875 91.292969 322.105469 89.371094 C 323.171875 88.589844 324.878906 87.449219 326.945312 86.167969 C 327.515625 85.882812 328.011719 85.597656 328.511719 85.242188 Z M 86.058594 271.601562 C 67.335938 245.550781 43.277344 219.992188 18.859375 210.382812 C 18.933594 210.667969 19.003906 211.023438 19.074219 211.308594 C 19.144531 211.59375 19.144531 211.808594 19.214844 212.09375 C 19.359375 212.875 19.574219 213.585938 19.714844 214.371094 C 19.855469 214.941406 20 215.507812 20.070312 216.007812 C 20.140625 216.222656 20.140625 216.363281 20.214844 216.578125 C 20.640625 218.429688 21.136719 220.207031 21.636719 222.058594 C 21.707031 222.273438 21.777344 222.484375 21.851562 222.699219 C 23.058594 226.96875 24.484375 231.167969 26.050781 235.226562 C 52.957031 243.199219 80.71875 269.609375 102.144531 296.019531 C 97.375 288.046875 91.894531 279.644531 85.84375 271.316406 C 85.988281 271.460938 85.988281 271.53125 86.058594 271.601562 Z M 86.058594 271.601562 " fill-opacity="1" fill-rule="nonzero"/><g clip-path="url(#9fc3eab416)"><path fill="#ffffff" d="M 167.636719 310.328125 C 186.425781 247.328125 222.445312 179.988281 281.957031 123.183594 C 282.027344 123.113281 282.167969 122.96875 282.242188 122.898438 C 283.808594 121.402344 285.445312 119.910156 287.082031 118.414062 C 287.9375 117.632812 288.71875 116.917969 289.574219 116.136719 C 290.355469 115.425781 291.140625 114.714844 291.921875 114 C 293.0625 112.933594 294.269531 111.9375 295.480469 110.867188 C 296.191406 110.226562 296.976562 109.585938 297.757812 108.945312 C 298.828125 108.023438 299.894531 107.097656 300.960938 106.171875 C 301.675781 105.53125 302.386719 104.960938 303.167969 104.320312 C 303.3125 104.179688 303.453125 104.035156 303.597656 103.964844 C 304.949219 102.824219 306.371094 101.6875 307.796875 100.546875 C 312.496094 96.703125 317.40625 92.929688 322.390625 89.230469 C 326.375 86.238281 338.617188 79.191406 349.511719 73.210938 C 356.273438 69.511719 362.464844 66.238281 366.023438 64.457031 C 337.125 63.316406 305.804688 73.285156 275.621094 89.941406 C 208.28125 127.171875 146.636719 198.28125 130.40625 256.011719 C 127.273438 236.652344 88.976562 189.597656 70.253906 180.058594 C 59.648438 174.648438 50.109375 170.59375 33.878906 180.273438 C 27.1875 184.257812 21.636719 189.386719 16.652344 194.582031 C 14.804688 196.503906 13.09375 198.425781 11.386719 200.277344 C 8.964844 202.980469 10.035156 207.464844 13.523438 208.535156 C 15.300781 209.03125 17.082031 209.671875 18.859375 210.382812 C 43.347656 219.992188 67.335938 245.550781 86.058594 271.601562 C 98.445312 288.828125 108.480469 306.269531 114.886719 319.507812 C 115.101562 319.9375 115.316406 320.363281 115.527344 320.789062 C 122.648438 333.390625 142.363281 338.941406 156.03125 328.335938 C 156.03125 328.335938 156.101562 328.265625 156.101562 328.265625 C 161.085938 324.492188 165.144531 318.65625 167.636719 310.328125 Z M 167.636719 310.328125 " fill-opacity="1" fill-rule="nonzero"/></g></svg>